<svg xmlns="http://www.w3.org/2000/svg" xmlns:xlink="http://www.w3.org/1999/xlink" contentStyleType="text/css" data-diagram-type="DESCRIPTION" height="1059px" preserveAspectRatio="none" style="width:1500px;height:1059px;background:#FFFFFF;" version="1.1" viewBox="0 0 1500 1059" width="1500px" zoomAndPan="magnify"><defs/><g><!--cluster Core--><g class="cluster" data-entity="Core" data-source-line="5" data-uid="ent0003" id="cluster_Core"><rect fill="none" height="772" rx="2.5" ry="2.5" style="stroke:#181818;stroke-width:1;" width="960" x="140" y="281"/><text fill="#000000" font-family="sans-serif" font-size="14" font-weight="bold" lengthAdjust="spacing" textLength="36.292" x="601.854" y="295.9951">Core</text></g><!--cluster Drivers--><g class="cluster" data-entity="Drivers" data-source-line="6" data-uid="ent0004" id="cluster_Drivers"><rect fill="none" height="113" rx="2.5" ry="2.5" style="stroke:#181818;stroke-width:1;" width="872" x="188" y="340"/><text fill="#000000" font-family="sans-serif" font-size="14" font-weight="bold" lengthAdjust="spacing" textLength="57.1826" x="595.4087" y="354.9951">Drivers</text></g><!--cluster Core Functions--><g class="cluster" data-entity="Core Functions" data-source-line="16" data-uid="ent0012" id="cluster_Core Functions"><rect fill="none" height="203" rx="2.5" ry="2.5" style="stroke:#181818;stroke-width:1;" width="324" x="744" y="485"/><text fill="#000000" font-family="sans-serif" font-size="14" font-weight="bold" lengthAdjust="spacing" textLength="118.3711" x="846.8145" y="499.9951">Core Functions</text></g><!--cluster Utilities--><g class="cluster" data-entity="Utilities" data-source-line="22" data-uid="ent0016" id="cluster_Utilities"><rect fill="none" height="309" rx="2.5" ry="2.5" style="stroke:#181818;stroke-width:1;" width="245" x="627" y="712"/><text fill="#000000" font-family="sans-serif" font-size="14" font-weight="bold" lengthAdjust="spacing" textLength="61.7764" x="718.6118" y="726.9951">Utilities</text></g><!--cluster Programs--><g class="cluster" data-entity="Programs" data-source-line="51" data-uid="ent0038" id="cluster_Programs"><rect fill="none" height="180" rx="2.5" ry="2.5" style="stroke:#181818;stroke-width:1;" width="385" x="140" y="7"/><text fill="#000000" font-family="sans-serif" font-size="14" font-weight="bold" lengthAdjust="spacing" textLength="76.0771" x="294.4614" y="21.9951">Programs</text></g><!--cluster Shell--><g class="cluster" data-entity="Shell" data-source-line="52" data-uid="ent0039" id="cluster_Shell"><rect fill="none" height="97" rx="2.5" ry="2.5" style="stroke:#181818;stroke-width:1;" width="313" x="180" y="58"/><text fill="#000000" font-family="sans-serif" font-size="14" font-weight="bold" lengthAdjust="spacing" textLength="39.1426" x="316.9287" y="72.9951">Shell</text></g><!--entity HWCL--><g class="entity" data-entity="HWCL" data-source-line="2" data-uid="ent0002" id="entity_HWCL"><polygon fill="#F1F1F1" points="1124.5,757,1134.5,747,1483.8545,747,1483.8545,783.2969,1473.8545,793.2969,1124.5,793.2969,1124.5,757" style="stroke:#181818;stroke-width:0.5;"/><line style="stroke:#181818;stroke-width:0.5;" x1="1473.8545" x2="1483.8545" y1="757" y2="747"/><line style="stroke:#181818;stroke-width:0.5;" x1="1124.5" x2="1473.8545" y1="757" y2="757"/><line style="stroke:#181818;stroke-width:0.5;" x1="1473.8545" x2="1473.8545" y1="757" y2="793.2969"/><text fill="#000000" font-family="sans-serif" font-size="14" lengthAdjust="spacing" textLength="319.3545" x="1139.5" y="779.9951">Hardware Compatibility Layer (Hardware API)</text></g><!--entity PCI--><g class="entity" data-entity="PCI" data-source-line="7" data-uid="ent0005" id="entity_PCI"><rect fill="#F1F1F1" height="46.2969" rx="2.5" ry="2.5" style="stroke:#181818;stroke-width:0.5;" width="62.3467" x="311" y="383"/><rect fill="#F1F1F1" height="10" style="stroke:#181818;stroke-width:0.5;" width="15" x="353.3467" y="388"/><rect fill="#F1F1F1" height="2" style="stroke:#181818;stroke-width:0.5;" width="4" x="351.3467" y="390"/><rect fill="#F1F1F1" height="2" style="stroke:#181818;stroke-width:0.5;" width="4" x="351.3467" y="394"/><text fill="#000000" font-family="sans-serif" font-size="14" lengthAdjust="spacing" textLength="22.3467" x="326" y="415.9951">PCI</text></g><!--entity PIT--><g class="entity" data-entity="PIT" data-source-line="8" data-uid="ent0006" id="entity_PIT"><rect fill="#F1F1F1" height="46.2969" rx="2.5" ry="2.5" style="stroke:#181818;stroke-width:0.5;" width="61.123" x="694.5" y="383"/><rect fill="#F1F1F1" height="10" style="stroke:#181818;stroke-width:0.5;" width="15" x="735.623" y="388"/><rect fill="#F1F1F1" height="2" style="stroke:#181818;stroke-width:0.5;" width="4" x="733.623" y="390"/><rect fill="#F1F1F1" height="2" style="stroke:#181818;stroke-width:0.5;" width="4" x="733.623" y="394"/><text fill="#000000" font-family="sans-serif" font-size="14" lengthAdjust="spacing" textLength="21.123" x="709.5" y="415.9951">PIT</text></g><!--entity VGA--><g class="entity" data-entity="VGA" data-source-line="9" data-uid="ent0007" id="entity_VGA"><rect fill="#F1F1F1" height="46.2969" rx="2.5" ry="2.5" style="stroke:#181818;stroke-width:0.5;" width="70.0029" x="947" y="383"/><rect fill="#F1F1F1" height="10" style="stroke:#181818;stroke-width:0.5;" width="15" x="997.0029" y="388"/><rect fill="#F1F1F1" height="2" style="stroke:#181818;stroke-width:0.5;" width="4" x="995.0029" y="390"/><rect fill="#F1F1F1" height="2" style="stroke:#181818;stroke-width:0.5;" width="4" x="995.0029" y="394"/><text fill="#000000" font-family="sans-serif" font-size="14" lengthAdjust="spacing" textLength="30.0029" x="962" y="415.9951">VGA</text></g><!--entity PS/2 Keyboard--><g class="entity" data-entity="PS/2 Keyboard" data-source-line="10" data-uid="ent0008" id="entity_PS/2 Keyboard"><rect fill="#F1F1F1" height="46.2969" rx="2.5" ry="2.5" style="stroke:#181818;stroke-width:0.5;" width="142.1563" x="517" y="383"/><rect fill="#F1F1F1" height="10" style="stroke:#181818;stroke-width:0.5;" width="15" x="639.1563" y="388"/><rect fill="#F1F1F1" height="2" style="stroke:#181818;stroke-width:0.5;" width="4" x="637.1563" y="390"/><rect fill="#F1F1F1" height="2" style="stroke:#181818;stroke-width:0.5;" width="4" x="637.1563" y="394"/><text fill="#000000" font-family="sans-serif" font-size="14" lengthAdjust="spacing" textLength="102.1563" x="532" y="415.9951">PS/2 Keyboard</text></g><!--entity PS/2 Mouse--><g class="entity" data-entity="PS/2 Mouse" data-source-line="11" data-uid="ent0009" id="entity_PS/2 Mouse"><rect fill="#F1F1F1" height="46.2969" rx="2.5" ry="2.5" style="stroke:#181818;stroke-width:0.5;" width="120.8281" x="790.5" y="383"/><rect fill="#F1F1F1" height="10" style="stroke:#181818;stroke-width:0.5;" width="15" x="891.3281" y="388"/><rect fill="#F1F1F1" height="2" style="stroke:#181818;stroke-width:0.5;" width="4" x="889.3281" y="390"/><rect fill="#F1F1F1" height="2" style="stroke:#181818;stroke-width:0.5;" width="4" x="889.3281" y="394"/><text fill="#000000" font-family="sans-serif" font-size="14" lengthAdjust="spacing" textLength="80.8281" x="805.5" y="415.9951">PS/2 Mouse</text></g><!--entity AHCI--><g class="entity" data-entity="AHCI" data-source-line="12" data-uid="ent0010" id="entity_AHCI"><rect fill="#F1F1F1" height="46.2969" rx="2.5" ry="2.5" style="stroke:#181818;stroke-width:0.5;" width="74.0088" x="408" y="383"/><rect fill="#F1F1F1" height="10" style="stroke:#181818;stroke-width:0.5;" width="15" x="462.0088" y="388"/><rect fill="#F1F1F1" height="2" style="stroke:#181818;stroke-width:0.5;" width="4" x="460.0088" y="390"/><rect fill="#F1F1F1" height="2" style="stroke:#181818;stroke-width:0.5;" width="4" x="460.0088" y="394"/><text fill="#000000" font-family="sans-serif" font-size="14" lengthAdjust="spacing" textLength="34.0088" x="423" y="415.9951">AHCI</text></g><!--entity IDE--><g class="entity" data-entity="IDE" data-source-line="13" data-uid="ent0011" id="entity_IDE"><rect fill="#F1F1F1" height="46.2969" rx="2.5" ry="2.5" style="stroke:#181818;stroke-width:0.5;" width="63.7549" x="212" y="383"/><rect fill="#F1F1F1" height="10" style="stroke:#181818;stroke-width:0.5;" width="15" x="255.7549" y="388"/><rect fill="#F1F1F1" height="2" style="stroke:#181818;stroke-width:0.5;" width="4" x="253.7549" y="390"/><rect fill="#F1F1F1" height="2" style="stroke:#181818;stroke-width:0.5;" width="4" x="253.7549" y="394"/><text fill="#000000" font-family="sans-serif" font-size="14" lengthAdjust="spacing" textLength="23.7549" x="227" y="415.9951">IDE</text></g><!--entity Virtual Threads--><g class="entity" data-entity="Virtual Threads" data-source-line="17" data-uid="ent0013" id="entity_Virtual Threads"><rect fill="#F1F1F1" height="46.2969" rx="2.5" ry="2.5" style="stroke:#181818;stroke-width:0.5;" width="147.0576" x="760.5" y="520"/><rect fill="#F1F1F1" height="10" style="stroke:#181818;stroke-width:0.5;" width="15" x="887.5576" y="525"/><rect fill="#F1F1F1" height="2" style="stroke:#181818;stroke-width:0.5;" width="4" x="885.5576" y="527"/><rect fill="#F1F1F1" height="2" style="stroke:#181818;stroke-width:0.5;" width="4" x="885.5576" y="531"/><text fill="#000000" font-family="sans-serif" font-size="14" lengthAdjust="spacing" textLength="107.0576" x="775.5" y="552.9951">Virtual Threads</text></g><!--entity Memory Manager--><g class="entity" data-entity="Memory Manager" data-source-line="18" data-uid="ent0014" id="entity_Memory Manager"><rect fill="#F1F1F1" height="46.2969" rx="2.5" ry="2.5" style="stroke:#181818;stroke-width:0.5;" width="162.7529" x="760.5" y="626"/><rect fill="#F1F1F1" height="10" style="stroke:#181818;stroke-width:0.5;" width="15" x="903.2529" y="631"/><rect fill="#F1F1F1" height="2" style="stroke:#181818;stroke-width:0.5;" width="4" x="901.2529" y="633"/><rect fill="#F1F1F1" height="2" style="stroke:#181818;stroke-width:0.5;" width="4" x="901.2529" y="637"/><text fill="#000000" font-family="sans-serif" font-size="14" lengthAdjust="spacing" textLength="122.7529" x="775.5" y="658.9951">Memory Manager</text></g><!--entity Interrupts--><g class="entity" data-entity="Interrupts" data-source-line="19" data-uid="ent0015" id="entity_Interrupts"><rect fill="#F1F1F1" height="46.2969" rx="2.5" ry="2.5" style="stroke:#181818;stroke-width:0.5;" width="109.1592" x="942.5" y="520"/><rect fill="#F1F1F1" height="10" style="stroke:#181818;stroke-width:0.5;" width="15" x="1031.6592" y="525"/><rect fill="#F1F1F1" height="2" style="stroke:#181818;stroke-width:0.5;" width="4" x="1029.6592" y="527"/><rect fill="#F1F1F1" height="2" style="stroke:#181818;stroke-width:0.5;" width="4" x="1029.6592" y="531"/><text fill="#000000" font-family="sans-serif" font-size="14" lengthAdjust="spacing" textLength="69.1592" x="957.5" y="552.9951">Interrupts</text></g><!--entity Vector--><g class="entity" data-entity="Vector" data-source-line="23" data-uid="ent0017" id="entity_Vector"><rect fill="#F1F1F1" height="46.2969" rx="2.5" ry="2.5" style="stroke:#181818;stroke-width:0.5;" width="85.6982" x="643" y="853"/><rect fill="#F1F1F1" height="10" style="stroke:#181818;stroke-width:0.5;" width="15" x="708.6982" y="858"/><rect fill="#F1F1F1" height="2" style="stroke:#181818;stroke-width:0.5;" width="4" x="706.6982" y="860"/><rect fill="#F1F1F1" height="2" style="stroke:#181818;stroke-width:0.5;" width="4" x="706.6982" y="864"/><text fill="#000000" font-family="sans-serif" font-size="14" lengthAdjust="spacing" textLength="45.6982" x="658" y="885.9951">Vector</text></g><!--entity Mutex--><g class="entity" data-entity="Mutex" data-source-line="24" data-uid="ent0018" id="entity_Mutex"><rect fill="#F1F1F1" height="46.2969" rx="2.5" ry="2.5" style="stroke:#181818;stroke-width:0.5;" width="83.3398" x="759.5" y="959"/><rect fill="#F1F1F1" height="10" style="stroke:#181818;stroke-width:0.5;" width="15" x="822.8398" y="964"/><rect fill="#F1F1F1" height="2" style="stroke:#181818;stroke-width:0.5;" width="4" x="820.8398" y="966"/><rect fill="#F1F1F1" height="2" style="stroke:#181818;stroke-width:0.5;" width="4" x="820.8398" y="970"/><text fill="#000000" font-family="sans-serif" font-size="14" lengthAdjust="spacing" textLength="43.3398" x="774.5" y="991.9951">Mutex</text></g><!--entity Events--><g class="entity" data-entity="Events" data-source-line="25" data-uid="ent0019" id="entity_Events"><rect fill="#F1F1F1" height="46.2969" rx="2.5" ry="2.5" style="stroke:#181818;stroke-width:0.5;" width="87.4004" x="643.5" y="747"/><rect fill="#F1F1F1" height="10" style="stroke:#181818;stroke-width:0.5;" width="15" x="710.9004" y="752"/><rect fill="#F1F1F1" height="2" style="stroke:#181818;stroke-width:0.5;" width="4" x="708.9004" y="754"/><rect fill="#F1F1F1" height="2" style="stroke:#181818;stroke-width:0.5;" width="4" x="708.9004" y="758"/><text fill="#000000" font-family="sans-serif" font-size="14" lengthAdjust="spacing" textLength="47.4004" x="658.5" y="779.9951">Events</text></g><!--entity Bitmap--><g class="entity" data-entity="Bitmap" data-source-line="26" data-uid="ent0020" id="entity_Bitmap"><rect fill="#F1F1F1" height="46.2969" rx="2.5" ry="2.5" style="stroke:#181818;stroke-width:0.5;" width="90.0869" x="766" y="747"/><rect fill="#F1F1F1" height="10" style="stroke:#181818;stroke-width:0.5;" width="15" x="836.0869" y="752"/><rect fill="#F1F1F1" height="2" style="stroke:#181818;stroke-width:0.5;" width="4" x="834.0869" y="754"/><rect fill="#F1F1F1" height="2" style="stroke:#181818;stroke-width:0.5;" width="4" x="834.0869" y="758"/><text fill="#000000" font-family="sans-serif" font-size="14" lengthAdjust="spacing" textLength="50.0869" x="781" y="779.9951">Bitmap</text></g><!--entity Visual output--><g class="entity" data-entity="Visual output" data-source-line="53" data-uid="ent0040" id="entity_Visual output"><rect fill="#F1F1F1" height="46.2969" rx="2.5" ry="2.5" style="stroke:#181818;stroke-width:0.5;" width="132.7295" x="343.5" y="93"/><rect fill="#F1F1F1" height="10" style="stroke:#181818;stroke-width:0.5;" width="15" x="456.2295" y="98"/><rect fill="#F1F1F1" height="2" style="stroke:#181818;stroke-width:0.5;" width="4" x="454.2295" y="100"/><rect fill="#F1F1F1" height="2" style="stroke:#181818;stroke-width:0.5;" width="4" x="454.2295" y="104"/><text fill="#000000" font-family="sans-serif" font-size="14" lengthAdjust="spacing" textLength="92.7295" x="358.5" y="125.9951">Visual output</text></g><!--entity Text Input--><g class="entity" data-entity="Text Input" data-source-line="54" data-uid="ent0041" id="entity_Text Input"><rect fill="#F1F1F1" height="46.2969" rx="2.5" ry="2.5" style="stroke:#181818;stroke-width:0.5;" width="111.6406" x="196" y="93"/><rect fill="#F1F1F1" height="10" style="stroke:#181818;stroke-width:0.5;" width="15" x="287.6406" y="98"/><rect fill="#F1F1F1" height="2" style="stroke:#181818;stroke-width:0.5;" width="4" x="285.6406" y="100"/><rect fill="#F1F1F1" height="2" style="stroke:#181818;stroke-width:0.5;" width="4" x="285.6406" y="104"/><text fill="#000000" font-family="sans-serif" font-size="14" lengthAdjust="spacing" textLength="71.6406" x="211" y="125.9951">Text Input</text></g><!--entity CL--><g class="entity" data-entity="CL" data-source-line="58" data-uid="ent0042" id="entity_CL"><polygon fill="#F1F1F1" points="16,221,26,211,279.5352,211,279.5352,247.2969,269.5352,257.2969,16,257.2969,16,221" style="stroke:#181818;stroke-width:0.5;"/><line style="stroke:#181818;stroke-width:0.5;" x1="269.5352" x2="279.5352" y1="221" y2="211"/><line style="stroke:#181818;stroke-width:0.5;" x1="16" x2="269.5352" y1="221" y2="221"/><line style="stroke:#181818;stroke-width:0.5;" x1="269.5352" x2="269.5352" y1="221" y2="257.2969"/><text fill="#000000" font-family="sans-serif" font-size="14" lengthAdjust="spacing" textLength="223.5352" x="31" y="243.9951">Compatibility Layer (Kernel API)</text></g><!--link Virtual Threads to Mutex--><g class="link" data-entity-1="Virtual Threads" data-entity-2="Mutex" data-source-line="30" data-uid="lnk21" id="link_Virtual Threads_Mutex"><path d="M879.76,566.16 C902.65,579.92 928.16,599.98 941,626 C954.77,653.9 947,665.47 941,696 C922.2,791.64 904.54,813.36 858,899 C846.41,920.33 834.0596,938.0572 821.9796,954.0972" fill="none" id="Virtual Threads-to-Mutex" style="stroke:#181818;stroke-width:1;"/><polygon fill="#181818" points="818.37,958.89,826.9795,954.1071,821.378,954.896,820.5891,949.2944,818.37,958.89" style="stroke:#181818;stroke-width:1;"/></g><!--link Virtual Threads to Memory Manager--><g class="link" data-entity-1="Virtual Threads" data-entity-2="Memory Manager" data-source-line="31" data-uid="lnk22" id="link_Virtual Threads_Memory Manager"><path d="M835.7,566.06 C837.05,583.7 838.4888,602.3578 839.8488,619.9978" fill="none" id="Virtual Threads-to-Memory Manager" style="stroke:#181818;stroke-width:1;"/><polygon fill="#181818" points="840.31,625.98,843.6063,616.6992,839.9257,620.9948,835.63,617.3141,840.31,625.98" style="stroke:#181818;stroke-width:1;"/></g><!--link Memory Manager to Bitmap--><g class="link" data-entity-1="Memory Manager" data-entity-2="Bitmap" data-source-line="33" data-uid="lnk23" id="link_Memory Manager_Bitmap"><path d="M836.24,672.1 C830.71,693.34 823.9034,719.474 818.3434,740.804" fill="none" id="Memory Manager-to-Bitmap" style="stroke:#181818;stroke-width:1;"/><polygon fill="#181818" points="816.83,746.61,822.9708,738.91,818.0912,741.7717,815.2295,736.8921,816.83,746.61" style="stroke:#181818;stroke-width:1;"/></g><!--link Memory Manager to Mutex--><g class="link" data-entity-1="Memory Manager" data-entity-2="Mutex" data-source-line="34" data-uid="lnk24" id="link_Memory Manager_Mutex"><path d="M858.77,672.16 C864.82,681.48 870.92,692.75 874,704 C884.45,742.15 881.28,754.12 874,793 C862.23,855.81 832.8587,919.2613 815.4087,953.5913" fill="none" id="Memory Manager-to-Mutex" style="stroke:#181818;stroke-width:1;"/><polygon fill="#181818" points="812.69,958.94,820.3339,952.7295,814.9556,954.4828,813.2023,949.1045,812.69,958.94" style="stroke:#181818;stroke-width:1;"/></g><!--link Drivers to Interrupts--><g class="link" data-entity-1="Drivers" data-entity-2="Interrupts" data-source-line="36" data-uid="lnk25" id="link_Drivers_Interrupts"><path d="M1038.7502,453.1853 C1038.6779,453.4004 1038.6054,453.6154 1038.5326,453.8304 C1037.951,455.5505 1037.3569,457.2687 1036.7519,458.9755 C1035.5417,462.3889 1034.2875,465.7563 1033,469 C1026.07,486.47 1019.4057,500.1759 1011.9357,514.4259" fill="none" id="Drivers-to-Interrupts" style="stroke:#181818;stroke-width:1;"/><polygon fill="#181818" points="1009.15,519.74,1016.8713,513.626,1011.4714,515.3116,1009.7858,509.9117,1009.15,519.74" style="stroke:#181818;stroke-width:1;"/></g><!--link PCI to Vector--><g class="link" data-entity-1="PCI" data-entity-2="Vector" data-source-line="37" data-uid="lnk26" id="link_PCI_Vector"><path d="M349.37,429.11 C371.36,492.4 441.9,677.15 552,793 C577.74,820.09 608.9431,838.9775 637.3731,853.1875" fill="none" id="PCI-to-Vector" style="stroke:#181818;stroke-width:1;"/><polygon fill="#181818" points="642.74,855.87,636.4779,848.2682,638.2675,853.6346,632.9012,855.4242,642.74,855.87" style="stroke:#181818;stroke-width:1;"/></g><!--link PIT to Vector--><g class="link" data-entity-1="PIT" data-entity-2="Vector" data-source-line="38" data-uid="lnk27" id="link_PIT_Vector"><path d="M710.17,429.19 C701.32,441.61 689.41,456.96 677,469 C672.66,473.21 669.2,471.87 666,477 C611.74,563.89 634.92,601.95 626,704 C622.55,743.41 613.71,755.4 626,793 C633.45,815.8 645.9086,833.0581 659.7086,848.4081" fill="none" id="PIT-to-Vector" style="stroke:#181818;stroke-width:1;"/><polygon fill="#181818" points="663.72,852.87,660.6776,843.5028,660.3772,849.1517,654.7283,848.8514,663.72,852.87" style="stroke:#181818;stroke-width:1;"/></g><!--link PIT to Virtual Threads--><g class="link" data-entity-1="PIT" data-entity-2="Virtual Threads" data-source-line="39" data-uid="lnk28" id="link_PIT_Virtual Threads"><path d="M741.91,429.25 C751.01,441.13 762.51,455.95 773,469 C786.87,486.24 799.0542,500.8598 811.2142,515.2298" fill="none" id="PIT-to-Virtual Threads" style="stroke:#181818;stroke-width:1;"/><polygon fill="#181818" points="815.09,519.81,812.3298,510.3558,811.8602,515.9932,806.2228,515.5236,815.09,519.81" style="stroke:#181818;stroke-width:1;"/></g><!--link VGA to Memory Manager--><g class="link" data-entity-1="VGA" data-entity-2="Memory Manager" data-source-line="40" data-uid="lnk29" id="link_VGA_Memory Manager"><path d="M969.6,429.23 C960.39,443.35 946.44,460.5 929,469 C910.4,478.06 757.31,462.06 743,477 C715.64,505.56 726.17,530.2 743,566 C755.01,591.55 774.3028,608.5948 795.8228,622.6148" fill="none" id="VGA-to-Memory Manager" style="stroke:#181818;stroke-width:1;"/><polygon fill="#181818" points="800.85,625.89,795.4926,617.6257,796.6606,623.1607,791.1257,624.3287,800.85,625.89" style="stroke:#181818;stroke-width:1;"/></g><!--link PS/2 Keyboard to Events--><g class="link" data-entity-1="PS/2 Keyboard" data-entity-2="Events" data-source-line="41" data-uid="lnk30" id="link_PS/2 Keyboard_Events"><path d="M594.04,429.1 C611.72,493.73 661.5974,676.1025 679.3274,740.9425" fill="none" id="PS/2 Keyboard-to-Events" style="stroke:#181818;stroke-width:1;"/><polygon fill="#181818" points="680.91,746.73,682.3945,736.9937,679.5912,741.9071,674.6778,739.1037,680.91,746.73" style="stroke:#181818;stroke-width:1;"/></g><!--link PS/2 Mouse to Events--><g class="link" data-entity-1="PS/2 Mouse" data-entity-2="Events" data-source-line="42" data-uid="lnk31" id="link_PS/2 Mouse_Events"><path d="M829.56,429.25 C814.95,443 794.44,459.73 773,469 C750.33,478.8 735.13,459.2 718,477 C646.07,551.76 667.5787,686.3296 679.9687,740.7796" fill="none" id="PS/2 Mouse-to-Events" style="stroke:#181818;stroke-width:1;stroke-dasharray:7.0,7.0;"/><polygon fill="#181818" points="681.3,746.63,683.2034,736.9668,680.1906,741.7546,675.4028,738.7418,681.3,746.63" style="stroke:#181818;stroke-width:1;"/></g><!--link AHCI to Memory Manager--><g class="link" data-entity-1="AHCI" data-entity-2="Memory Manager" data-source-line="43" data-uid="lnk32" id="link_AHCI_Memory Manager"><path d="M461.38,429.19 C471.53,441.91 485.38,457.57 500,469 C590.93,540.11 708.7841,594.2801 779.7941,623.6001" fill="none" id="AHCI-to-Memory Manager" style="stroke:#181818;stroke-width:1;"/><polygon fill="#181818" points="785.34,625.89,778.5478,618.7579,780.7185,623.9818,775.4946,626.1524,785.34,625.89" style="stroke:#181818;stroke-width:1;"/></g><!--link AHCI to Vector--><g class="link" data-entity-1="AHCI" data-entity-2="Vector" data-source-line="44" data-uid="lnk33" id="link_AHCI_Vector"><path d="M451.5,429.27 C470.07,490.69 527.42,666.37 611,793 C625.67,815.22 642.0312,833.1038 657.9512,848.7538" fill="none" id="AHCI-to-Vector" style="stroke:#181818;stroke-width:1;"/><polygon fill="#181818" points="662.23,852.96,658.616,843.7982,658.6644,849.4548,653.0077,849.5032,662.23,852.96" style="stroke:#181818;stroke-width:1;"/></g><!--link IDE to Vector--><g class="link" data-entity-1="IDE" data-entity-2="Vector" data-source-line="45" data-uid="lnk34" id="link_IDE_Vector"><path d="M251.32,429.21 C273.89,494.36 348.54,687.06 474,793 C523.45,834.75 590.6957,855.3458 636.8457,865.7058" fill="none" id="IDE-to-Vector" style="stroke:#181818;stroke-width:1;"/><polygon fill="#181818" points="642.7,867.02,634.7947,861.1458,637.8214,865.9248,633.0424,868.9516,642.7,867.02" style="stroke:#181818;stroke-width:1;"/></g><!--link Events to Mutex--><g class="link" data-entity-1="Events" data-entity-2="Mutex" data-source-line="47" data-uid="lnk35" id="link_Events_Mutex"><path d="M705.3,793.02 C718.02,809 734.83,831.51 747,853 C767.09,888.46 782.1761,927.2381 791.4761,953.3381" fill="none" id="Events-to-Mutex" style="stroke:#181818;stroke-width:1;"/><polygon fill="#181818" points="793.49,958.99,794.2371,949.1695,791.8117,954.2801,786.7012,951.8547,793.49,958.99" style="stroke:#181818;stroke-width:1;"/></g><!--link Events to Vector--><g class="link" data-entity-1="Events" data-entity-2="Vector" data-source-line="48" data-uid="lnk36" id="link_Events_Vector"><path d="M686.79,793.06 C686.62,810.7 686.4378,829.3403 686.2678,846.9803" fill="none" id="Events-to-Vector" style="stroke:#181818;stroke-width:1;"/><polygon fill="#181818" points="686.21,852.98,690.2965,844.019,686.2582,847.9802,682.2969,843.9419,686.21,852.98" style="stroke:#181818;stroke-width:1;"/></g><!--link Vector to Mutex--><g class="link" data-entity-1="Vector" data-entity-2="Mutex" data-source-line="49" data-uid="lnk37" id="link_Vector_Mutex"><path d="M710.39,899.06 C729.9,916.7 752.6894,937.316 772.1994,954.956" fill="none" id="Vector-to-Mutex" style="stroke:#181818;stroke-width:1;"/><polygon fill="#181818" points="776.65,958.98,772.6568,949.977,772.9412,955.6267,767.2915,955.9111,776.65,958.98" style="stroke:#181818;stroke-width:1;"/></g><!--link Programs to CL--><g class="link" data-entity-1="Programs" data-entity-2="CL" data-source-line="61" data-uid="lnk43" id="link_Programs_CL"><path d="M148,187.0374 C148,187.1942 148,187.3508 148,187.5073 C148,187.8203 148,188.1328 148,188.4448 C148,189.0687 148,189.6904 148,190.3096 C148,192.7865 148,195.2232 148,197.5998 C148,202.3531 148,200.8663 148,204.98" fill="none" id="Programs-to-CL" style="stroke:#181818;stroke-width:1;stroke-dasharray:7.0,7.0;"/><polygon fill="#181818" points="148,210.98,152,201.98,148,205.98,144,201.98,148,210.98" style="stroke:#181818;stroke-width:1;"/></g><!--link CL to Core--><g class="link" data-entity-1="CL" data-entity-2="Core" data-source-line="62" data-uid="lnk44" id="link_CL_Core"><path d="M148,257.22 C148,262.8913 148,269.4044 148,276.4663 C148,277.3491 148,278.2404 148,279.1397 C148,279.5894 148,274.041 148,274.4946" fill="none" id="CL-to-Core" style="stroke:#181818;stroke-width:1;stroke-dasharray:7.0,7.0;"/><polygon fill="#181818" points="148,280.4946,152,271.4946,148,275.4946,144,271.4946,148,280.4946" style="stroke:#181818;stroke-width:1;"/></g><!--link Interrupts to HWCL--><g class="link" data-entity-1="Interrupts" data-entity-2="HWCL" data-source-line="64" data-uid="lnk45" id="link_Interrupts_HWCL"><path d="M1029.24,566.16 C1052.85,582.5 1085.6,605.37 1114,626 C1171.79,667.98 1233.4776,714.8704 1270.4976,743.2404" fill="none" id="Interrupts-to-HWCL" style="stroke:#181818;stroke-width:1;"/><polygon fill="#181818" points="1275.26,746.89,1270.5495,738.2407,1271.2913,743.8487,1265.6833,744.5905,1275.26,746.89" style="stroke:#181818;stroke-width:1;"/></g><!--link Drivers to HWCL--><g class="link" data-entity-1="Drivers" data-entity-2="HWCL" data-source-line="65" data-uid="lnk46" id="link_Drivers_HWCL"><path d="M1060.4473,419.1312 C1060.6093,419.3639 1060.7734,419.5996 1060.9396,419.8384 C1066.2589,427.4793 1073.7384,438.2235 1082.7906,451.227 C1100.895,477.2341 1125.29,512.2781 1151.275,549.6063 C1203.245,624.2625 1258.1469,703.1308 1285.2319,742.0358" fill="none" id="Drivers-to-HWCL" style="stroke:#181818;stroke-width:1;stroke-dasharray:7.0,7.0;"/><polygon fill="#181818" points="1288.66,746.96,1286.8006,737.2883,1285.8032,742.8565,1280.235,741.8591,1288.66,746.96" style="stroke:#181818;stroke-width:1;"/></g><!--link Memory Manager to HWCL--><g class="link" data-entity-1="Memory Manager" data-entity-2="HWCL" data-source-line="66" data-uid="lnk47" id="link_Memory Manager_HWCL"><path d="M923.53,671 C1006.3,692.32 1128.1097,723.6931 1212.3797,745.4031" fill="none" id="Memory Manager-to-HWCL" style="stroke:#181818;stroke-width:1;stroke-dasharray:7.0,7.0;"/><polygon fill="#181818" points="1218.19,746.9,1210.4725,740.7812,1213.3481,745.6526,1208.4767,748.5282,1218.19,746.9" style="stroke:#181818;stroke-width:1;"/></g><!--link Virtual Threads to HWCL--><g class="link" data-entity-1="Virtual Threads" data-entity-2="HWCL" data-source-line="67" data-uid="lnk48" id="link_Virtual Threads_HWCL"><path d="M870.19,566.13 C922.12,597.37 1021.31,655.15 1110,696 C1151.84,715.27 1194.6823,731.5225 1232.7223,744.9525" fill="none" id="Virtual Threads-to-HWCL" style="stroke:#181818;stroke-width:1;stroke-dasharray:7.0,7.0;"/><polygon fill="#181818" points="1238.38,746.95,1231.225,740.182,1233.6652,745.2854,1228.5617,747.7256,1238.38,746.95" style="stroke:#181818;stroke-width:1;"/></g><!--SRC=[TLJ1Ri8m3BttAo9Esu5DsWTCOeMD2YeXmTW1xH30WaXjKhafevhsxqlJfhYXpIbvBxLVxETATGGscdCy_d045gequrhiHI9qoPQy16GFBJjPHOyZndCs_mgNx3Vu2mA4W-Rob9WWeK8O6PIPHU0fYWjWxfXgxLPXz4rEqOQSjXyJogsVNzW2ohqo8dmyLaKE19pCEt6ZwQm-6PsUg4ehUo_aGGibkzgs0dN14xOv8_1ZJkB5a2eiMSmbFm7IH583Of7fV2ZVfwugAi1BPIue6YWkD5p9UNO1gQc4Dw5Jdhai9i-TN3OUlxQ1XbZl8O6FrDTSidwsIH7icWOtCAs5xNCDkwVQPWz3Vksj6_f5UzQeBxc2KN-mfoVAM9CCX2HSgwvoKHSANB1khJjW-tcpwTQCE6E5weGypNicPts69F6ycLVbKONE2ariiO6hPf5iGMiDQKUxTw8NW1AIspoxQNPYRCd2PM1mkpFJObvDMckVK_q5WgRxzfu5xjnoO-xSs5B_]--></g></svg>