<svg xmlns="http://www.w3.org/2000/svg" xmlns:xlink="http://www.w3.org/1999/xlink" contentStyleType="text/css" data-diagram-type="DESCRIPTION" height="876px" preserveAspectRatio="none" style="width:1575px;height:876px;background:#FFFFFF;" version="1.1" viewBox="0 0 1575 876" width="1575px" zoomAndPan="magnify"><defs/><g><!--cluster Core--><g class="cluster" data-entity="Core" data-source-line="5" data-uid="ent0003" id="cluster_Core"><rect fill="none" height="589" rx="2.5" ry="2.5" style="stroke:#181818;stroke-width:1;" width="1035" x="140" y="281"/><text fill="#000000" font-family="sans-serif" font-size="14" font-weight="bold" lengthAdjust="spacing" textLength="36.292" x="639.354" y="295.9951">Core</text></g><!--cluster Drivers--><g class="cluster" data-entity="Drivers" data-source-line="6" data-uid="ent0004" id="cluster_Drivers"><rect fill="none" height="113" rx="2.5" ry="2.5" style="stroke:#181818;stroke-width:1;" width="873" x="198" y="384"/><text fill="#000000" font-family="sans-serif" font-size="14" font-weight="bold" lengthAdjust="spacing" textLength="57.1826" x="605.9087" y="398.9951">Drivers</text></g><!--cluster Core Functions--><g class="cluster" data-entity="Core Functions" data-source-line="16" data-uid="ent0012" id="cluster_Core Functions"><rect fill="none" height="203" rx="2.5" ry="2.5" style="stroke:#181818;stroke-width:1;" width="324" x="819" y="529"/><text fill="#000000" font-family="sans-serif" font-size="14" font-weight="bold" lengthAdjust="spacing" textLength="118.3711" x="921.8145" y="543.9951">Core Functions</text></g><!--cluster Utilities--><g class="cluster" data-entity="Utilities" data-source-line="22" data-uid="ent0016" id="cluster_Utilities"><rect fill="none" height="309" rx="2.5" ry="2.5" style="stroke:#181818;stroke-width:1;" width="245" x="341" y="529"/><text fill="#000000" font-family="sans-serif" font-size="14" font-weight="bold" lengthAdjust="spacing" textLength="61.7764" x="432.6118" y="543.9951">Utilities</text></g><!--cluster File Systems--><g class="cluster" data-entity="File Systems" data-source-line="33" data-uid="ent0022" id="cluster_File Systems"><rect fill="none" height="97" rx="2.5" ry="2.5" style="stroke:#181818;stroke-width:1;" width="132" x="610" y="529"/><text fill="#000000" font-family="sans-serif" font-size="14" font-weight="bold" lengthAdjust="spacing" textLength="100.1807" x="625.9097" y="543.9951">File Systems</text></g><!--cluster Programs--><g class="cluster" data-entity="Programs" data-source-line="65" data-uid="ent0046" id="cluster_Programs"><rect fill="none" height="180" rx="2.5" ry="2.5" style="stroke:#181818;stroke-width:1;" width="385" x="140" y="7"/><text fill="#000000" font-family="sans-serif" font-size="14" font-weight="bold" lengthAdjust="spacing" textLength="76.0771" x="294.4614" y="21.9951">Programs</text></g><!--cluster Shell--><g class="cluster" data-entity="Shell" data-source-line="66" data-uid="ent0047" id="cluster_Shell"><rect fill="none" height="97" rx="2.5" ry="2.5" style="stroke:#181818;stroke-width:1;" width="313" x="180" y="58"/><text fill="#000000" font-family="sans-serif" font-size="14" font-weight="bold" lengthAdjust="spacing" textLength="39.1426" x="316.9287" y="72.9951">Shell</text></g><!--entity HWCL--><g class="entity" data-entity="HWCL" data-source-line="2" data-uid="ent0002" id="entity_HWCL"><polygon fill="#F1F1F1" points="1199.5,786,1209.5,776,1558.8545,776,1558.8545,812.2969,1548.8545,822.2969,1199.5,822.2969,1199.5,786" style="stroke:#181818;stroke-width:0.5;"/><line style="stroke:#181818;stroke-width:0.5;" x1="1548.8545" x2="1558.8545" y1="786" y2="776"/><line style="stroke:#181818;stroke-width:0.5;" x1="1199.5" x2="1548.8545" y1="786" y2="786"/><line style="stroke:#181818;stroke-width:0.5;" x1="1548.8545" x2="1548.8545" y1="786" y2="822.2969"/><text fill="#000000" font-family="sans-serif" font-size="14" lengthAdjust="spacing" textLength="319.3545" x="1214.5" y="808.9951">Hardware Compatibility Layer (Hardware API)</text></g><!--entity PCI--><g class="entity" data-entity="PCI" data-source-line="7" data-uid="ent0005" id="entity_PCI"><rect fill="#F1F1F1" height="46.2969" rx="2.5" ry="2.5" style="stroke:#181818;stroke-width:0.5;" width="62.3467" x="321" y="427"/><rect fill="#F1F1F1" height="10" style="stroke:#181818;stroke-width:0.5;" width="15" x="363.3467" y="432"/><rect fill="#F1F1F1" height="2" style="stroke:#181818;stroke-width:0.5;" width="4" x="361.3467" y="434"/><rect fill="#F1F1F1" height="2" style="stroke:#181818;stroke-width:0.5;" width="4" x="361.3467" y="438"/><text fill="#000000" font-family="sans-serif" font-size="14" lengthAdjust="spacing" textLength="22.3467" x="336" y="459.9951">PCI</text></g><!--entity PIT--><g class="entity" data-entity="PIT" data-source-line="8" data-uid="ent0006" id="entity_PIT"><rect fill="#F1F1F1" height="46.2969" rx="2.5" ry="2.5" style="stroke:#181818;stroke-width:0.5;" width="61.123" x="684.5" y="427"/><rect fill="#F1F1F1" height="10" style="stroke:#181818;stroke-width:0.5;" width="15" x="725.623" y="432"/><rect fill="#F1F1F1" height="2" style="stroke:#181818;stroke-width:0.5;" width="4" x="723.623" y="434"/><rect fill="#F1F1F1" height="2" style="stroke:#181818;stroke-width:0.5;" width="4" x="723.623" y="438"/><text fill="#000000" font-family="sans-serif" font-size="14" lengthAdjust="spacing" textLength="21.123" x="699.5" y="459.9951">PIT</text></g><!--entity VGA--><g class="entity" data-entity="VGA" data-source-line="9" data-uid="ent0007" id="entity_VGA"><rect fill="#F1F1F1" height="46.2969" rx="2.5" ry="2.5" style="stroke:#181818;stroke-width:0.5;" width="70.0029" x="958" y="427"/><rect fill="#F1F1F1" height="10" style="stroke:#181818;stroke-width:0.5;" width="15" x="1008.0029" y="432"/><rect fill="#F1F1F1" height="2" style="stroke:#181818;stroke-width:0.5;" width="4" x="1006.0029" y="434"/><rect fill="#F1F1F1" height="2" style="stroke:#181818;stroke-width:0.5;" width="4" x="1006.0029" y="438"/><text fill="#000000" font-family="sans-serif" font-size="14" lengthAdjust="spacing" textLength="30.0029" x="973" y="459.9951">VGA</text></g><!--entity PS/2 Keyboard--><g class="entity" data-entity="PS/2 Keyboard" data-source-line="10" data-uid="ent0008" id="entity_PS/2 Keyboard"><rect fill="#F1F1F1" height="46.2969" rx="2.5" ry="2.5" style="stroke:#181818;stroke-width:0.5;" width="142.1563" x="781" y="427"/><rect fill="#F1F1F1" height="10" style="stroke:#181818;stroke-width:0.5;" width="15" x="903.1563" y="432"/><rect fill="#F1F1F1" height="2" style="stroke:#181818;stroke-width:0.5;" width="4" x="901.1563" y="434"/><rect fill="#F1F1F1" height="2" style="stroke:#181818;stroke-width:0.5;" width="4" x="901.1563" y="438"/><text fill="#000000" font-family="sans-serif" font-size="14" lengthAdjust="spacing" textLength="102.1563" x="796" y="459.9951">PS/2 Keyboard</text></g><!--entity PS/2 Mouse--><g class="entity" data-entity="PS/2 Mouse" data-source-line="11" data-uid="ent0009" id="entity_PS/2 Mouse"><rect fill="#F1F1F1" height="46.2969" rx="2.5" ry="2.5" style="stroke:#181818;stroke-width:0.5;" width="120.8281" x="418.5" y="427"/><rect fill="#F1F1F1" height="10" style="stroke:#181818;stroke-width:0.5;" width="15" x="519.3281" y="432"/><rect fill="#F1F1F1" height="2" style="stroke:#181818;stroke-width:0.5;" width="4" x="517.3281" y="434"/><rect fill="#F1F1F1" height="2" style="stroke:#181818;stroke-width:0.5;" width="4" x="517.3281" y="438"/><text fill="#000000" font-family="sans-serif" font-size="14" lengthAdjust="spacing" textLength="80.8281" x="433.5" y="459.9951">PS/2 Mouse</text></g><!--entity AHCI--><g class="entity" data-entity="AHCI" data-source-line="12" data-uid="ent0010" id="entity_AHCI"><rect fill="#F1F1F1" height="46.2969" rx="2.5" ry="2.5" style="stroke:#181818;stroke-width:0.5;" width="74.0088" x="575" y="427"/><rect fill="#F1F1F1" height="10" style="stroke:#181818;stroke-width:0.5;" width="15" x="629.0088" y="432"/><rect fill="#F1F1F1" height="2" style="stroke:#181818;stroke-width:0.5;" width="4" x="627.0088" y="434"/><rect fill="#F1F1F1" height="2" style="stroke:#181818;stroke-width:0.5;" width="4" x="627.0088" y="438"/><text fill="#000000" font-family="sans-serif" font-size="14" lengthAdjust="spacing" textLength="34.0088" x="590" y="459.9951">AHCI</text></g><!--entity IDE--><g class="entity" data-entity="IDE" data-source-line="13" data-uid="ent0011" id="entity_IDE"><rect fill="#F1F1F1" height="46.2969" rx="2.5" ry="2.5" style="stroke:#181818;stroke-width:0.5;" width="63.7549" x="222" y="427"/><rect fill="#F1F1F1" height="10" style="stroke:#181818;stroke-width:0.5;" width="15" x="265.7549" y="432"/><rect fill="#F1F1F1" height="2" style="stroke:#181818;stroke-width:0.5;" width="4" x="263.7549" y="434"/><rect fill="#F1F1F1" height="2" style="stroke:#181818;stroke-width:0.5;" width="4" x="263.7549" y="438"/><text fill="#000000" font-family="sans-serif" font-size="14" lengthAdjust="spacing" textLength="23.7549" x="237" y="459.9951">IDE</text></g><!--entity Virtual Threads--><g class="entity" data-entity="Virtual Threads" data-source-line="17" data-uid="ent0013" id="entity_Virtual Threads"><rect fill="#F1F1F1" height="46.2969" rx="2.5" ry="2.5" style="stroke:#181818;stroke-width:0.5;" width="147.0576" x="835.5" y="564"/><rect fill="#F1F1F1" height="10" style="stroke:#181818;stroke-width:0.5;" width="15" x="962.5576" y="569"/><rect fill="#F1F1F1" height="2" style="stroke:#181818;stroke-width:0.5;" width="4" x="960.5576" y="571"/><rect fill="#F1F1F1" height="2" style="stroke:#181818;stroke-width:0.5;" width="4" x="960.5576" y="575"/><text fill="#000000" font-family="sans-serif" font-size="14" lengthAdjust="spacing" textLength="107.0576" x="850.5" y="596.9951">Virtual Threads</text></g><!--entity Memory Manager--><g class="entity" data-entity="Memory Manager" data-source-line="18" data-uid="ent0014" id="entity_Memory Manager"><rect fill="#F1F1F1" height="46.2969" rx="2.5" ry="2.5" style="stroke:#181818;stroke-width:0.5;" width="162.7529" x="835.5" y="670"/><rect fill="#F1F1F1" height="10" style="stroke:#181818;stroke-width:0.5;" width="15" x="978.2529" y="675"/><rect fill="#F1F1F1" height="2" style="stroke:#181818;stroke-width:0.5;" width="4" x="976.2529" y="677"/><rect fill="#F1F1F1" height="2" style="stroke:#181818;stroke-width:0.5;" width="4" x="976.2529" y="681"/><text fill="#000000" font-family="sans-serif" font-size="14" lengthAdjust="spacing" textLength="122.7529" x="850.5" y="702.9951">Memory Manager</text></g><!--entity Interrupts--><g class="entity" data-entity="Interrupts" data-source-line="19" data-uid="ent0015" id="entity_Interrupts"><rect fill="#F1F1F1" height="46.2969" rx="2.5" ry="2.5" style="stroke:#181818;stroke-width:0.5;" width="109.1592" x="1017.5" y="564"/><rect fill="#F1F1F1" height="10" style="stroke:#181818;stroke-width:0.5;" width="15" x="1106.6592" y="569"/><rect fill="#F1F1F1" height="2" style="stroke:#181818;stroke-width:0.5;" width="4" x="1104.6592" y="571"/><rect fill="#F1F1F1" height="2" style="stroke:#181818;stroke-width:0.5;" width="4" x="1104.6592" y="575"/><text fill="#000000" font-family="sans-serif" font-size="14" lengthAdjust="spacing" textLength="69.1592" x="1032.5" y="596.9951">Interrupts</text></g><!--entity Vector--><g class="entity" data-entity="Vector" data-source-line="23" data-uid="ent0017" id="entity_Vector"><rect fill="#F1F1F1" height="46.2969" rx="2.5" ry="2.5" style="stroke:#181818;stroke-width:0.5;" width="85.6982" x="357" y="670"/><rect fill="#F1F1F1" height="10" style="stroke:#181818;stroke-width:0.5;" width="15" x="422.6982" y="675"/><rect fill="#F1F1F1" height="2" style="stroke:#181818;stroke-width:0.5;" width="4" x="420.6982" y="677"/><rect fill="#F1F1F1" height="2" style="stroke:#181818;stroke-width:0.5;" width="4" x="420.6982" y="681"/><text fill="#000000" font-family="sans-serif" font-size="14" lengthAdjust="spacing" textLength="45.6982" x="372" y="702.9951">Vector</text></g><!--entity Mutex--><g class="entity" data-entity="Mutex" data-source-line="24" data-uid="ent0018" id="entity_Mutex"><rect fill="#F1F1F1" height="46.2969" rx="2.5" ry="2.5" style="stroke:#181818;stroke-width:0.5;" width="83.3398" x="473.5" y="776"/><rect fill="#F1F1F1" height="10" style="stroke:#181818;stroke-width:0.5;" width="15" x="536.8398" y="781"/><rect fill="#F1F1F1" height="2" style="stroke:#181818;stroke-width:0.5;" width="4" x="534.8398" y="783"/><rect fill="#F1F1F1" height="2" style="stroke:#181818;stroke-width:0.5;" width="4" x="534.8398" y="787"/><text fill="#000000" font-family="sans-serif" font-size="14" lengthAdjust="spacing" textLength="43.3398" x="488.5" y="808.9951">Mutex</text></g><!--entity Events--><g class="entity" data-entity="Events" data-source-line="25" data-uid="ent0019" id="entity_Events"><rect fill="#F1F1F1" height="46.2969" rx="2.5" ry="2.5" style="stroke:#181818;stroke-width:0.5;" width="87.4004" x="357.5" y="564"/><rect fill="#F1F1F1" height="10" style="stroke:#181818;stroke-width:0.5;" width="15" x="424.9004" y="569"/><rect fill="#F1F1F1" height="2" style="stroke:#181818;stroke-width:0.5;" width="4" x="422.9004" y="571"/><rect fill="#F1F1F1" height="2" style="stroke:#181818;stroke-width:0.5;" width="4" x="422.9004" y="575"/><text fill="#000000" font-family="sans-serif" font-size="14" lengthAdjust="spacing" textLength="47.4004" x="372.5" y="596.9951">Events</text></g><!--entity Bitmap--><g class="entity" data-entity="Bitmap" data-source-line="26" data-uid="ent0020" id="entity_Bitmap"><rect fill="#F1F1F1" height="46.2969" rx="2.5" ry="2.5" style="stroke:#181818;stroke-width:0.5;" width="90.0869" x="480" y="564"/><rect fill="#F1F1F1" height="10" style="stroke:#181818;stroke-width:0.5;" width="15" x="550.0869" y="569"/><rect fill="#F1F1F1" height="2" style="stroke:#181818;stroke-width:0.5;" width="4" x="548.0869" y="571"/><rect fill="#F1F1F1" height="2" style="stroke:#181818;stroke-width:0.5;" width="4" x="548.0869" y="575"/><text fill="#000000" font-family="sans-serif" font-size="14" lengthAdjust="spacing" textLength="50.0869" x="495" y="596.9951">Bitmap</text></g><!--entity Virtual File System--><g class="entity" data-entity="Virtual File System" data-source-line="29" data-uid="ent0021" id="entity_Virtual File System"><rect fill="#F1F1F1" height="36.2969" rx="2.5" ry="2.5" style="stroke:#181818;stroke-width:0.5;" width="151.6055" x="183" y="324"/><text fill="#000000" font-family="sans-serif" font-size="14" lengthAdjust="spacing" textLength="131.6055" x="193" y="346.9951">Virtual File System</text></g><!--entity ISO9660--><g class="entity" data-entity="ISO9660" data-source-line="34" data-uid="ent0023" id="entity_ISO9660"><rect fill="#F1F1F1" height="46.2969" rx="2.5" ry="2.5" style="stroke:#181818;stroke-width:0.5;" width="99.6641" x="626" y="564"/><rect fill="#F1F1F1" height="10" style="stroke:#181818;stroke-width:0.5;" width="15" x="705.6641" y="569"/><rect fill="#F1F1F1" height="2" style="stroke:#181818;stroke-width:0.5;" width="4" x="703.6641" y="571"/><rect fill="#F1F1F1" height="2" style="stroke:#181818;stroke-width:0.5;" width="4" x="703.6641" y="575"/><text fill="#000000" font-family="sans-serif" font-size="14" lengthAdjust="spacing" textLength="59.6641" x="641" y="596.9951">ISO9660</text></g><!--entity Visual output--><g class="entity" data-entity="Visual output" data-source-line="67" data-uid="ent0048" id="entity_Visual output"><rect fill="#F1F1F1" height="46.2969" rx="2.5" ry="2.5" style="stroke:#181818;stroke-width:0.5;" width="132.7295" x="343.5" y="93"/><rect fill="#F1F1F1" height="10" style="stroke:#181818;stroke-width:0.5;" width="15" x="456.2295" y="98"/><rect fill="#F1F1F1" height="2" style="stroke:#181818;stroke-width:0.5;" width="4" x="454.2295" y="100"/><rect fill="#F1F1F1" height="2" style="stroke:#181818;stroke-width:0.5;" width="4" x="454.2295" y="104"/><text fill="#000000" font-family="sans-serif" font-size="14" lengthAdjust="spacing" textLength="92.7295" x="358.5" y="125.9951">Visual output</text></g><!--entity Text Input--><g class="entity" data-entity="Text Input" data-source-line="68" data-uid="ent0049" id="entity_Text Input"><rect fill="#F1F1F1" height="46.2969" rx="2.5" ry="2.5" style="stroke:#181818;stroke-width:0.5;" width="111.6406" x="196" y="93"/><rect fill="#F1F1F1" height="10" style="stroke:#181818;stroke-width:0.5;" width="15" x="287.6406" y="98"/><rect fill="#F1F1F1" height="2" style="stroke:#181818;stroke-width:0.5;" width="4" x="285.6406" y="100"/><rect fill="#F1F1F1" height="2" style="stroke:#181818;stroke-width:0.5;" width="4" x="285.6406" y="104"/><text fill="#000000" font-family="sans-serif" font-size="14" lengthAdjust="spacing" textLength="71.6406" x="211" y="125.9951">Text Input</text></g><!--entity CL--><g class="entity" data-entity="CL" data-source-line="72" data-uid="ent0050" id="entity_CL"><polygon fill="#F1F1F1" points="16,221,26,211,279.5352,211,279.5352,247.2969,269.5352,257.2969,16,257.2969,16,221" style="stroke:#181818;stroke-width:0.5;"/><line style="stroke:#181818;stroke-width:0.5;" x1="269.5352" x2="279.5352" y1="221" y2="211"/><line style="stroke:#181818;stroke-width:0.5;" x1="16" x2="269.5352" y1="221" y2="221"/><line style="stroke:#181818;stroke-width:0.5;" x1="269.5352" x2="269.5352" y1="221" y2="257.2969"/><text fill="#000000" font-family="sans-serif" font-size="14" lengthAdjust="spacing" textLength="223.5352" x="31" y="243.9951">Compatibility Layer (Kernel API)</text></g><!--link Virtual Threads to Mutex--><g class="link" data-entity-1="Virtual Threads" data-entity-2="Mutex" data-source-line="38" data-uid="lnk24" id="link_Virtual Threads_Mutex"><path d="M954.76,610.16 C977.65,623.92 1003.16,643.98 1016,670 C1029.77,697.9 1036.7,716.77 1016,740 C985.6,774.12 677.644,790.8923 562.784,796.0223" fill="none" id="Virtual Threads-to-Mutex" style="stroke:#181818;stroke-width:1;"/><polygon fill="#181818" points="556.79,796.29,565.9595,799.8844,561.785,796.0669,565.6026,791.8924,556.79,796.29" style="stroke:#181818;stroke-width:1;"/></g><!--link Virtual Threads to Memory Manager--><g class="link" data-entity-1="Virtual Threads" data-entity-2="Memory Manager" data-source-line="39" data-uid="lnk25" id="link_Virtual Threads_Memory Manager"><path d="M910.7,610.06 C912.05,627.7 913.4888,646.3578 914.8488,663.9978" fill="none" id="Virtual Threads-to-Memory Manager" style="stroke:#181818;stroke-width:1;"/><polygon fill="#181818" points="915.31,669.98,918.6063,660.6992,914.9257,664.9948,910.63,661.3141,915.31,669.98" style="stroke:#181818;stroke-width:1;"/></g><!--link Memory Manager to Bitmap--><g class="link" data-entity-1="Memory Manager" data-entity-2="Bitmap" data-source-line="41" data-uid="lnk26" id="link_Memory Manager_Bitmap"><path d="M835.37,683.55 C772.45,675.39 683.98,660.29 610,634 C592.77,627.88 580.0009,621.6218 565.0509,613.0218" fill="none" id="Memory Manager-to-Bitmap" style="stroke:#181818;stroke-width:1;"/><polygon fill="#181818" points="559.85,610.03,565.6568,617.985,564.1841,612.5232,569.6458,611.0505,559.85,610.03" style="stroke:#181818;stroke-width:1;"/></g><!--link Memory Manager to Mutex--><g class="link" data-entity-1="Memory Manager" data-entity-2="Mutex" data-source-line="42" data-uid="lnk27" id="link_Memory Manager_Mutex"><path d="M835.16,715.17 C750.68,737.03 628.0586,768.7467 562.4886,785.7167" fill="none" id="Memory Manager-to-Mutex" style="stroke:#181818;stroke-width:1;"/><polygon fill="#181818" points="556.68,787.22,566.3951,788.8374,561.5205,785.9672,564.3907,781.0926,556.68,787.22" style="stroke:#181818;stroke-width:1;"/></g><!--link Drivers to Interrupts--><g class="link" data-entity-1="Drivers" data-entity-2="Interrupts" data-source-line="44" data-uid="lnk28" id="link_Drivers_Interrupts"><path d="M1066.0803,497.2037 C1066.0925,497.3866 1066.1047,497.5697 1066.117,497.7531 C1066.1414,498.1197 1066.1659,498.4873 1066.1904,498.8557 C1066.2887,500.3295 1066.3878,501.8169 1066.4876,503.3149 C1066.6873,506.3108 1066.8898,509.3488 1067.0935,512.4036 C1067.5008,518.5132 1067.9127,524.6901 1068.3158,530.7317 C1069.1219,542.815 1069.4921,548.3709 1070.1196,557.7534" fill="none" id="Drivers-to-Interrupts" style="stroke:#181818;stroke-width:1;"/><polygon fill="#181818" points="1070.52,563.74,1073.9105,554.4931,1070.1863,558.7511,1065.9283,555.027,1070.52,563.74" style="stroke:#181818;stroke-width:1;"/></g><!--link PCI to Vector--><g class="link" data-entity-1="PCI" data-entity-2="Vector" data-source-line="45" data-uid="lnk29" id="link_PCI_Vector"><path d="M339.82,473.2 C331.41,486.58 319.04,502.92 304,513 C292.89,520.45 283.1,510.36 275,521 C244.57,560.96 247.98,591.67 275,634 C292.89,662.03 322.4105,675.1817 350.9505,682.7517" fill="none" id="PCI-to-Vector" style="stroke:#181818;stroke-width:1;"/><polygon fill="#181818" points="356.75,684.29,349.0763,678.1163,351.9171,683.0081,347.0253,685.8489,356.75,684.29" style="stroke:#181818;stroke-width:1;"/></g><!--link PIT to Vector--><g class="link" data-entity-1="PIT" data-entity-2="Vector" data-source-line="46" data-uid="lnk30" id="link_PIT_Vector"><path d="M704.32,473.28 C696.22,487.42 683.64,504.58 667,513 C650.78,521.2 352.69,507.99 340,521 C304.92,556.94 320.39,587.77 340,634 C345.94,648 352.5618,656.3551 363.6618,665.9551" fill="none" id="PIT-to-Vector" style="stroke:#181818;stroke-width:1;"/><polygon fill="#181818" points="368.2,669.88,364.0093,660.9672,364.4182,666.6092,358.7761,667.0181,368.2,669.88" style="stroke:#181818;stroke-width:1;"/></g><!--link PIT to Virtual Threads--><g class="link" data-entity-1="PIT" data-entity-2="Virtual Threads" data-source-line="47" data-uid="lnk31" id="link_PIT_Virtual Threads"><path d="M728.88,473.08 C737.76,485.92 750.18,501.73 764,513 C789.99,534.2 817.663,549.0324 845.713,561.4424" fill="none" id="PIT-to-Virtual Threads" style="stroke:#181818;stroke-width:1;"/><polygon fill="#181818" points="851.2,563.87,844.5879,556.5707,846.6275,561.847,841.3512,563.8866,851.2,563.87" style="stroke:#181818;stroke-width:1;"/></g><!--link VGA to Memory Manager--><g class="link" data-entity-1="VGA" data-entity-2="Memory Manager" data-source-line="48" data-uid="lnk32" id="link_VGA_Memory Manager"><path d="M980.87,473.1 C971.85,487.16 958.17,504.3 941,513 C928.78,519.19 827.36,511.01 818,521 C783.66,557.65 793.03,590.43 818,634 C826.87,649.47 836.4054,658.2598 851.8654,666.9898" fill="none" id="VGA-to-Memory Manager" style="stroke:#181818;stroke-width:1;"/><polygon fill="#181818" points="857.09,669.94,851.22,662.0316,852.7362,667.4815,847.2863,668.9977,857.09,669.94" style="stroke:#181818;stroke-width:1;"/></g><!--link PS/2 Keyboard to Events--><g class="link" data-entity-1="PS/2 Keyboard" data-entity-2="Events" data-source-line="49" data-uid="lnk33" id="link_PS/2 Keyboard_Events"><path d="M828.44,473.2 C811.62,487.5 787.69,504.89 763,513 C731.32,523.41 493.48,507.47 463,521 C442.9,529.92 429.6749,543.8919 418.6649,558.9919" fill="none" id="PS/2 Keyboard-to-Events" style="stroke:#181818;stroke-width:1;"/><polygon fill="#181818" points="415.13,563.84,423.6645,558.9245,418.0758,559.7999,417.2003,554.2112,415.13,563.84" style="stroke:#181818;stroke-width:1;"/></g><!--link PS/2 Mouse to Events--><g class="link" data-entity-1="PS/2 Mouse" data-entity-2="Events" data-source-line="50" data-uid="lnk34" id="link_PS/2 Mouse_Events"><path d="M466.12,473.29 C451.67,498.31 431.3623,533.4552 416.9023,558.4752" fill="none" id="PS/2 Mouse-to-Events" style="stroke:#181818;stroke-width:1;stroke-dasharray:7.0,7.0;"/><polygon fill="#181818" points="413.9,563.67,421.8667,557.8793,416.4019,559.341,414.9402,553.8762,413.9,563.67" style="stroke:#181818;stroke-width:1;"/></g><!--link AHCI to Memory Manager--><g class="link" data-entity-1="AHCI" data-entity-2="Memory Manager" data-source-line="51" data-uid="lnk35" id="link_AHCI_Memory Manager"><path d="M625.46,473.19 C635.17,487.1 649.6,504.04 667,513 C696.8,528.35 715.29,500.74 742,521 C785.07,553.67 749.56,595.01 787,634 C801.98,649.6 816.405,658.9006 836.155,667.5606" fill="none" id="AHCI-to-Memory Manager" style="stroke:#181818;stroke-width:1;"/><polygon fill="#181818" points="841.65,669.97,835.0138,662.6925,837.0709,667.9621,831.8013,670.0192,841.65,669.97" style="stroke:#181818;stroke-width:1;"/></g><!--link AHCI to Vector--><g class="link" data-entity-1="AHCI" data-entity-2="Vector" data-source-line="52" data-uid="lnk36" id="link_AHCI_Vector"><path d="M598.96,473.31 C589.34,487.46 574.84,504.62 557,513 C544.67,518.79 321.47,511.21 312,521 C277.07,557.09 288.19,589.78 312,634 C321.63,651.88 334.1804,662.291 351.2804,671.601" fill="none" id="AHCI-to-Vector" style="stroke:#181818;stroke-width:1;"/><polygon fill="#181818" points="356.55,674.47,350.5583,666.6534,352.1587,672.0792,346.7329,673.6796,356.55,674.47" style="stroke:#181818;stroke-width:1;"/></g><!--link IDE to Vector--><g class="link" data-entity-1="IDE" data-entity-2="Vector" data-source-line="53" data-uid="lnk37" id="link_IDE_Vector"><path d="M245,473.06 C231.53,510.01 211.1,585.12 245,634 C269.97,670 314.2494,682.8576 350.7794,688.0376" fill="none" id="IDE-to-Vector" style="stroke:#181818;stroke-width:1;"/><polygon fill="#181818" points="356.72,688.88,348.3707,683.656,351.7695,688.178,347.2476,691.5768,356.72,688.88" style="stroke:#181818;stroke-width:1;"/></g><!--link Events to Mutex--><g class="link" data-entity-1="Events" data-entity-2="Mutex" data-source-line="55" data-uid="lnk38" id="link_Events_Mutex"><path d="M419.3,610.02 C432.02,626 448.83,648.51 461,670 C481.09,705.46 496.1761,744.2381 505.4761,770.3381" fill="none" id="Events-to-Mutex" style="stroke:#181818;stroke-width:1;"/><polygon fill="#181818" points="507.49,775.99,508.2371,766.1695,505.8117,771.2801,500.7012,768.8547,507.49,775.99" style="stroke:#181818;stroke-width:1;"/></g><!--link Events to Vector--><g class="link" data-entity-1="Events" data-entity-2="Vector" data-source-line="56" data-uid="lnk39" id="link_Events_Vector"><path d="M400.79,610.06 C400.62,627.7 400.4378,646.3403 400.2678,663.9803" fill="none" id="Events-to-Vector" style="stroke:#181818;stroke-width:1;"/><polygon fill="#181818" points="400.21,669.98,404.2965,661.019,400.2582,664.9802,396.2969,660.9419,400.21,669.98" style="stroke:#181818;stroke-width:1;"/></g><!--link Vector to Mutex--><g class="link" data-entity-1="Vector" data-entity-2="Mutex" data-source-line="57" data-uid="lnk40" id="link_Vector_Mutex"><path d="M424.39,716.06 C443.9,733.7 466.6894,754.316 486.1994,771.956" fill="none" id="Vector-to-Mutex" style="stroke:#181818;stroke-width:1;"/><polygon fill="#181818" points="490.65,775.98,486.6568,766.977,486.9412,772.6267,481.2915,772.9111,490.65,775.98" style="stroke:#181818;stroke-width:1;"/></g><!--link Virtual File System to Vector--><g class="link" data-entity-1="Virtual File System" data-entity-2="Vector" data-source-line="59" data-uid="lnk41" id="link_Virtual File System_Vector"><path d="M212.73,360.2 C210.15,362.49 207.85,365.08 206,368 C142.64,467.95 143.53,542.02 218,634 C251.49,675.37 308.5495,687.1773 350.9195,690.5973" fill="none" id="Virtual File System-to-Vector" style="stroke:#181818;stroke-width:1;"/><polygon fill="#181818" points="356.9,691.08,348.251,686.3689,351.9162,690.6777,347.6074,694.3429,356.9,691.08" style="stroke:#181818;stroke-width:1;"/></g><!--link Virtual File System to ISO9660--><g class="link" data-entity-1="Virtual File System" data-entity-2="ISO9660" data-source-line="60" data-uid="lnk42" id="link_Virtual File System_ISO9660"><path d="M335.16,342.49 C533.67,341.53 1053.36,341.56 1079,368 C1123.87,414.26 1123.86,466.74 1079,513 C1068.94,523.37 833.08,517.72 819,521 C781.42,529.75 746.9643,545.8197 718.9543,561.0097" fill="none" id="Virtual File System-to-ISO9660" style="stroke:#181818;stroke-width:1;"/><polygon fill="#181818" points="713.68,563.87,723.4984,563.0958,718.0753,561.4864,719.6846,556.0633,713.68,563.87" style="stroke:#181818;stroke-width:1;"/></g><!--link Virtual File System to IDE--><g class="link" data-entity-1="Virtual File System" data-entity-2="IDE" data-source-line="61" data-uid="lnk43" id="link_Virtual File System_IDE"><path d="M258.2,360.03 C257.34,378.17 256.2632,400.9667 255.3232,420.8567" fill="none" id="Virtual File System-to-IDE" style="stroke:#181818;stroke-width:1;"/><polygon fill="#181818" points="255.04,426.85,259.4604,418.0489,255.276,421.8556,251.4693,417.6712,255.04,426.85" style="stroke:#181818;stroke-width:1;"/></g><!--link ISO9660 to Vector--><g class="link" data-entity-1="ISO9660" data-entity-2="Vector" data-source-line="62" data-uid="lnk44" id="link_ISO9660_Vector"><path d="M636.36,610.1 C620.92,618.22 602.9,627.11 586,634 C538.24,653.49 487.1675,668.7574 448.9875,679.1974" fill="none" id="ISO9660-to-Vector" style="stroke:#181818;stroke-width:1;"/><polygon fill="#181818" points="443.2,680.78,452.9363,682.2645,448.0229,679.4612,450.8263,674.5478,443.2,680.78" style="stroke:#181818;stroke-width:1;"/></g><!--link ISO9660 to Memory Manager--><g class="link" data-entity-1="ISO9660" data-entity-2="Memory Manager" data-source-line="63" data-uid="lnk45" id="link_ISO9660_Memory Manager"><path d="M709.7,610.11 C722.89,618.23 738.34,627.11 753,634 C782.25,647.74 810.013,658.2174 839.033,667.9774" fill="none" id="ISO9660-to-Memory Manager" style="stroke:#181818;stroke-width:1;"/><polygon fill="#181818" points="844.72,669.89,837.4646,663.2297,839.9808,668.2961,834.9144,670.8124,844.72,669.89" style="stroke:#181818;stroke-width:1;"/></g><!--link Programs to CL--><g class="link" data-entity-1="Programs" data-entity-2="CL" data-source-line="75" data-uid="lnk51" id="link_Programs_CL"><path d="M148,187.0374 C148,187.1942 148,187.3508 148,187.5073 C148,187.8203 148,188.1328 148,188.4448 C148,189.0687 148,189.6904 148,190.3096 C148,192.7865 148,195.2232 148,197.5998 C148,202.3531 148,200.8663 148,204.98" fill="none" id="Programs-to-CL" style="stroke:#181818;stroke-width:1;stroke-dasharray:7.0,7.0;"/><polygon fill="#181818" points="148,210.98,152,201.98,148,205.98,144,201.98,148,210.98" style="stroke:#181818;stroke-width:1;"/></g><!--link CL to Core--><g class="link" data-entity-1="CL" data-entity-2="Core" data-source-line="76" data-uid="lnk52" id="link_CL_Core"><path d="M148,257.22 C148,260.9838 148,265.0645 148,269.3304 C148,271.4633 148,273.6425 148,275.8514 C148,276.9559 148,278.0678 148,279.1851 C148,279.7438 148,274.3038 148,274.8648" fill="none" id="CL-to-Core" style="stroke:#181818;stroke-width:1;stroke-dasharray:7.0,7.0;"/><polygon fill="#181818" points="148,280.8648,152,271.8648,148,275.8648,144,271.8648,148,280.8648" style="stroke:#181818;stroke-width:1;"/></g><!--link Interrupts to HWCL--><g class="link" data-entity-1="Interrupts" data-entity-2="HWCL" data-source-line="78" data-uid="lnk53" id="link_Interrupts_HWCL"><path d="M1104.27,610.08 C1163.24,650.41 1282.7573,732.1731 1341.7473,772.5131" fill="none" id="Interrupts-to-HWCL" style="stroke:#181818;stroke-width:1;"/><polygon fill="#181818" points="1346.7,775.9,1341.5289,767.5179,1342.5728,773.0776,1337.0131,774.1215,1346.7,775.9" style="stroke:#181818;stroke-width:1;"/></g><!--link Drivers to HWCL--><g class="link" data-entity-1="Drivers" data-entity-2="HWCL" data-source-line="79" data-uid="lnk54" id="link_Drivers_HWCL"><path d="M1071.1021,457.425 C1071.1774,457.4855 1071.2532,457.5463 1071.3295,457.6075 C1071.6344,457.8524 1071.9466,458.1032 1072.2656,458.36 C1077.3706,462.4681 1084.2525,468.0825 1092.0525,474.6475 C1107.6525,487.7775 1126.925,504.71 1143,521 C1231.09,610.26 1320.7766,722.9037 1358.2766,771.1237" fill="none" id="Drivers-to-HWCL" style="stroke:#181818;stroke-width:1;stroke-dasharray:7.0,7.0;"/><polygon fill="#181818" points="1361.96,775.86,1359.5925,766.2999,1358.8905,771.9131,1353.2774,771.2111,1361.96,775.86" style="stroke:#181818;stroke-width:1;"/></g><!--link Memory Manager to HWCL--><g class="link" data-entity-1="Memory Manager" data-entity-2="HWCL" data-source-line="80" data-uid="lnk55" id="link_Memory Manager_HWCL"><path d="M998.53,712.35 C1077.41,730.11 1191.1865,755.7224 1275.1965,774.6324" fill="none" id="Memory Manager-to-HWCL" style="stroke:#181818;stroke-width:1;stroke-dasharray:7.0,7.0;"/><polygon fill="#181818" points="1281.05,775.95,1273.1481,770.0713,1276.172,774.852,1271.3913,777.876,1281.05,775.95" style="stroke:#181818;stroke-width:1;"/></g><!--link Virtual Threads to HWCL--><g class="link" data-entity-1="Virtual Threads" data-entity-2="HWCL" data-source-line="81" data-uid="lnk56" id="link_Virtual Threads_HWCL"><path d="M944.25,610.03 C996.41,641.94 1097.92,701.42 1190,740 C1223.4,753.99 1255.6093,764.6223 1288.7093,774.2623" fill="none" id="Virtual Threads-to-HWCL" style="stroke:#181818;stroke-width:1;stroke-dasharray:7.0,7.0;"/><polygon fill="#181818" points="1294.47,775.94,1286.9475,769.583,1289.6694,774.5419,1284.7105,777.2639,1294.47,775.94" style="stroke:#181818;stroke-width:1;"/></g><!--SRC=[VLInRi8m4Dtp5HPJEq2h3aXTAj409G9K96Wxe0u6Jc0fiP7ZKAAg_rx7YSFP96IAtplVFP-VZuiTaCw4ojqFbK12aHofOXiMCvMJ6Sr1ahkQ7IoY-mwXAPbyXJFo6_m5WOIjedmVwoIXaD3HAD4VWeUIdK2cbYc-zIAClj4gMg7Lvzi0Syk79pA5V2Eq21-VYom510ucJjveE2fNMgSdgj1AnXdVAYQug-sJIPNHcAmE4kWkHVdca0YPapdbT0yI5-8AfCoEAcshzw6AZZBmIka0WHFDCmLdj1wTW2iiuPMfX1xRgbZfOwPNopnLa1JrMg9Hb2ihMhu_z_kFjehUUTKKqks-r7BRMAzTWO-KOVP8pMnL8bXNDgfWt77ZfXAs3JMMQeVy6pQUQnRj6R0CijU2NKXwFSmOAxQaH5ojhl2g2mKscTjh1wotLpzkpvhzu6oy4LAxu5PCySBgIFz83dpb1kJ4XHHxIIykHDJo077ilS-q42CoTSmKUXehE2iIyHeqnkLcl3LEjIb83l5bfjc9PiMO2mrdWSRDdvuO-awGySovYaaOLDuqSGQuylA5kNehDVKF]--></g></svg>